solid ESP32CAM_Box_Cover
facet normal 0.0 -1.0 0.0
  outer loop
    vertex 91.25 -9.5 1.9999999999999998
    vertex 0.0 -9.5 0.0
    vertex 92.75 -9.5 0.0
  endloop
endfacet
facet normal 0.0 -1.0 0.0
  outer loop
    vertex 0.0 -9.5 0.0
    vertex 91.25 -9.5 1.9999999999999998
    vertex 1.5 -9.5 1.9999999999999998
  endloop
endfacet
facet normal 0.0 0.0 1.0
  outer loop
    vertex 1.5 -9.5 1.9999999999999998
    vertex 91.25 31.25 1.9999999999999998
    vertex 1.4999999999999987 31.25 1.9999999999999998
  endloop
endfacet
facet normal 0.0 0.0 1.0
  outer loop
    vertex 91.25 31.25 1.9999999999999998
    vertex 1.5 -9.5 1.9999999999999998
    vertex 91.25 -9.5 1.9999999999999998
  endloop
endfacet
facet normal -0.8000000000000002 -1.7756052293692844e-17 0.6
  outer loop
    vertex 1.4999999999999987 31.25 1.9999999999999998
    vertex 0.0 -9.5 0.0
    vertex 1.5 -9.5 1.9999999999999998
  endloop
endfacet
facet normal -0.8000000000000002 -1.7756052293692844e-17 0.6
  outer loop
    vertex 0.0 -9.5 0.0
    vertex 1.4999999999999987 31.25 1.9999999999999998
    vertex 0.0 32.75 0.0
  endloop
endfacet
facet normal 0.8000000000000004 1.6042766675575105e-18 0.5999999999999993
  outer loop
    vertex 92.75 32.74999999999999 0.0
    vertex 91.25 -9.5 1.9999999999999998
    vertex 92.75 -9.5 0.0
  endloop
endfacet
facet normal 0.8000000000000004 1.6042766675575105e-18 0.5999999999999993
  outer loop
    vertex 91.25 -9.5 1.9999999999999998
    vertex 92.75 32.74999999999999 0.0
    vertex 91.25 31.25 1.9999999999999998
  endloop
endfacet
facet normal 0.0 0.0 -1.0
  outer loop
    vertex 92.75 32.74999999999999 0.0
    vertex 0.0 -9.5 0.0
    vertex 0.0 32.75 0.0
  endloop
endfacet
facet normal 0.0 0.0 -1.0
  outer loop
    vertex 0.0 -9.5 0.0
    vertex 92.75 32.74999999999999 0.0
    vertex 41.375 -5.5 0.0
  endloop
endfacet
facet normal 0.0 0.0 -1.0
  outer loop
    vertex 41.375 -5.5 0.0
    vertex 92.75 32.74999999999999 0.0
    vertex 51.375 -5.5 0.0
  endloop
endfacet
facet normal 0.0 0.0 -1.0
  outer loop
    vertex 51.375 -5.5 0.0
    vertex 92.75 32.74999999999999 0.0
    vertex 51.375 -6.499999999999999 0.0
  endloop
endfacet
facet normal 0.0 0.0 -1.0
  outer loop
    vertex 0.0 -9.5 0.0
    vertex 41.375 -6.499999999999999 0.0
    vertex 92.75 -9.5 0.0
  endloop
endfacet
facet normal 0.0 0.0 -1.0
  outer loop
    vertex 41.375 -6.499999999999999 0.0
    vertex 0.0 -9.5 0.0
    vertex 41.375 -5.5 0.0
  endloop
endfacet
facet normal 0.0 0.0 -1.0
  outer loop
    vertex 92.75 -9.5 0.0
    vertex 41.375 -6.499999999999999 0.0
    vertex 51.375 -6.499999999999999 0.0
  endloop
endfacet
facet normal 0.0 0.0 -1.0
  outer loop
    vertex 92.75 -9.5 0.0
    vertex 51.375 -6.499999999999999 0.0
    vertex 92.75 32.74999999999999 0.0
  endloop
endfacet
facet normal 1.4387314375953447e-17 0.7999999999999997 0.6000000000000005
  outer loop
    vertex 1.4999999999999987 31.25 1.9999999999999998
    vertex 92.75 32.74999999999999 0.0
    vertex 0.0 32.75 0.0
  endloop
endfacet
facet normal 1.4387314375953447e-17 0.7999999999999997 0.6000000000000005
  outer loop
    vertex 92.75 32.74999999999999 0.0
    vertex 1.4999999999999987 31.25 1.9999999999999998
    vertex 91.25 31.25 1.9999999999999998
  endloop
endfacet
facet normal 1.0 0.0 0.0
  outer loop
    vertex 41.375 -5.5 0.0
    vertex 41.375 -6.499999999999999 0.49999999999999994
    vertex 41.375 -6.499999999999999 0.0
  endloop
endfacet
facet normal 1.0 0.0 0.0
  outer loop
    vertex 41.375 -6.499999999999999 0.49999999999999994
    vertex 41.375 -5.5 0.0
    vertex 41.375 -5.5 0.49999999999999994
  endloop
endfacet
facet normal 0.0 0.0 -1.0
  outer loop
    vertex 51.375 -5.5 0.49999999999999994
    vertex 41.375 -6.499999999999999 0.49999999999999994
    vertex 41.375 -5.5 0.49999999999999994
  endloop
endfacet
facet normal 0.0 0.0 -1.0
  outer loop
    vertex 41.375 -6.499999999999999 0.49999999999999994
    vertex 51.375 -5.5 0.49999999999999994
    vertex 51.375 -6.499999999999999 0.49999999999999994
  endloop
endfacet
facet normal 0.0 -1.0 0.0
  outer loop
    vertex 51.375 -5.5 0.49999999999999994
    vertex 41.375 -5.5 0.0
    vertex 51.375 -5.5 0.0
  endloop
endfacet
facet normal 0.0 -1.0 0.0
  outer loop
    vertex 41.375 -5.5 0.0
    vertex 51.375 -5.5 0.49999999999999994
    vertex 41.375 -5.5 0.49999999999999994
  endloop
endfacet
facet normal -1.0 -0.0 -0.0
  outer loop
    vertex 51.375 -5.5 0.49999999999999994
    vertex 51.375 -6.499999999999999 0.0
    vertex 51.375 -6.499999999999999 0.49999999999999994
  endloop
endfacet
facet normal -1.0 -0.0 -0.0
  outer loop
    vertex 51.375 -6.499999999999999 0.0
    vertex 51.375 -5.5 0.49999999999999994
    vertex 51.375 -5.5 0.0
  endloop
endfacet
facet normal 0.0 1.0 0.0
  outer loop
    vertex 41.375 -6.499999999999999 0.49999999999999994
    vertex 51.375 -6.499999999999999 0.0
    vertex 41.375 -6.499999999999999 0.0
  endloop
endfacet
facet normal 0.0 1.0 0.0
  outer loop
    vertex 51.375 -6.499999999999999 0.0
    vertex 41.375 -6.499999999999999 0.49999999999999994
    vertex 51.375 -6.499999999999999 0.49999999999999994
  endloop
endfacet
endsolid ESP32CAM_Box_Cover
